<?xml version="1.0" encoding="UTF-8"?>
<svg id="Layer_1" data-name="Layer 1" xmlns="http://www.w3.org/2000/svg" xmlns:xlink="http://www.w3.org/1999/xlink" version="1.1" viewBox="0 0 512 512">
  <defs>
    <style>
      .cls-1 {
        fill: url(#linear-gradient);
      }

      .cls-1, .cls-2, .cls-3 {
        stroke-width: 0px;
      }

      .cls-4 {
        opacity: .3;
      }

      .cls-2 {
        fill: #380744;
      }

      .cls-3 {
        fill: #fff;
      }
    </style>
    <linearGradient id="linear-gradient" x1="64.7" y1="256" x2="447.3" y2="256" gradientUnits="userSpaceOnUse">
      <stop offset="0" stop-color="#916aad"/>
      <stop offset="1" stop-color="#552d85"/>
    </linearGradient>
  </defs>
  <g id="back">
    <rect class="cls-3" x="3.07" y="3.29" width="504.87" height="504.87" rx="122.18" ry="122.18"/>
    <g class="cls-4">
      <path class="cls-2" d="M385.76,9.29c30.9,0,60.04,12.12,82.05,34.13,22.01,22.01,34.13,51.15,34.13,82.05v260.51c0,30.9-12.12,60.04-34.13,82.05-22.01,22.01-51.15,34.13-82.05,34.13H125.25c-30.9,0-60.04-12.12-82.05-34.13-22.01-22.01-34.13-51.15-34.13-82.05V125.47c0-30.9,12.12-60.04,34.13-82.05C65.21,21.41,94.35,9.29,125.25,9.29h260.51M385.76,3.29H125.25C58.05,3.29,3.07,58.27,3.07,125.47v260.51c0,67.2,54.98,122.18,122.18,122.18h260.51c67.2,0,122.18-54.98,122.18-122.18V125.47c0-67.2-54.98-122.18-122.18-122.18h0Z"/>
    </g>
  </g>
  <path class="cls-1" d="M447.03,225.19c-1.9-42.1-12.3-70.7-33.4-92.4-21.3-22-50.9-33.4-99.5-38.2-18.3-1.9-84.6-2.8-102.6-1.4-47.4,3.5-74.2,10.5-96.7,25.1-9.3,6-12.5,8.7-11.6,10.1.3.6.1.7-.4.4-1.5-.9-11.3,9.8-16.8,18.2-2.6,4-6.5,11-8.6,15.6-17.8,37.9-16.8,108.7,2.1,149.2,8.1,17.3,21.2,33,35.8,42.6l3.05,2.08-.61-.15,2.9,52.2c.11,2.04.36,7.29,1.17,9.15,1.1,2.52,3.21,1.92,6.4,1.2,11.18-2.51,68.18-38.09,74.01-41.75l18.37.97c28.1,1.6,81.6.8,100.9-1.4,51.2-5.9,79.1-19,100.1-46.9,18.3-24.3,27.4-61.8,25.4-104.6ZM377.53,190.79c-1.6,4.2-121.5,124-126.5,126.4-4.8,2.2-12.3,2.4-17.1.4-4.5-1.9-65.2-63.2-67.6-68.3-7.6-16.1,9.7-34.4,26-27.7,2.4,1,11.7,9.5,26.4,24.2,19.6,19.6,22.9,22.5,24.7,21.7,1-.5,24.7-23.5,52.5-51.1s52.2-51.1,54.3-52.2c4.3-2.3,9.4-2.6,14.4-1,4.3,1.5,10.7,7.4,12.5,11.6,1.7,3.8,1.8,12,.4,16Z"/>
</svg>